# xmcd
#
# Track frame offsets: 
#        150
#        10991
#        41531
#        72449
#        99467
#        123975
#        147458
#        175544
#        199402
#
# Disc length: 2841 seconds
#
# Revision: 0
# Processed by: cddbd v1.5.2PL0 Copyright (c) Steve Scherf et al.
# Submitted via: ExactAudioCopy v1.0b3
#
DISCID=7d0b1709
DTITLE=A-lNamrood - Kitab Al Awthan
DYEAR=2012
DGENRE=Black Metal
TTITLE0=Mirath Al Shar
TTITLE1=Min Trab Al Jahal
TTITLE2=Hayat Al-Khlood
TTITLE3=Ashab Al-Aika
TTITLE4=Al Qaum, Hakem Al-Huroob
TTITLE5=Kiram Al-Mataia
TTITLE6=Ez Al Mulook
TTITLE7=Bani La'em
TTITLE8=Wa Ma Kan Lil Sufha'a Enitsar
EXTD=
EXTT0=
EXTT1=
EXTT2=
EXTT3=
EXTT4=
EXTT5=
EXTT6=
EXTT7=
EXTT8=
PLAYORDER=
